<svg width="469.79999999999995" height="143.10830217801606" viewBox="0 0 300 91.38461186335637" class="looka-1j8o68f"><defs id="SvgjsDefs1171"></defs><g id="SvgjsG1172" featurekey="odWo6G-0" transform="matrix(1.5384615659713745,0,0,1.5384615659713745,-36.923079857459435,-31.230768057016228)" fill="#3fc1c9"><g xmlns="http://www.w3.org/2000/svg"><ellipse cx="50.1" cy="34.3" rx="25.9" ry="14"></ellipse><path d="M50.1,58.7c14.3,0,25.9-6.3,25.9-14c0-1-0.2-2-0.6-3c-2.5,6.3-12.9,11-25.3,11s-22.8-4.7-25.3-11c-0.4,1-0.6,2-0.6,3   C24.2,52.4,35.8,58.7,50.1,58.7z"></path><path d="M49.9,63.2c-12.4,0-22.8-4.7-25.3-11c-0.4,1-0.6,2-0.6,3c0,7.7,11.6,14,25.9,14s25.9-6.3,25.9-14c0-1-0.2-2-0.6-3   C72.7,58.5,62.3,63.2,49.9,63.2z"></path><path d="M49.9,73.7c-12.4,0-22.8-4.7-25.3-11c-0.4,1-0.6,2-0.6,3c0,7.7,11.6,14,25.9,14s25.9-6.3,25.9-14c0-1-0.2-2-0.6-3   C72.7,69,62.3,73.7,49.9,73.7z"></path></g></g><g id="SvgjsG1173" featurekey="VGK2BT-0" transform="matrix(4.985235691070557,0,0,4.985235691070557,93.66339048466669,-20.106711965552307)" fill="#f5f5f5"><path d="M9.9153 8.288 l-6.7288 0 l0 4.1356 l3.8983 0 c0.16949 0 0.28814 0.11864 0.28814 0.28814 l0 1.2712 c0 0.18644 -0.11864 0.28814 -0.28814 0.28814 l-3.8983 0 l0.016784 3.8814 l6.712 0 c0.16949 0 0.28814 0.11864 0.28814 0.28814 l0 1.2712 c0 0.16949 -0.11864 0.28814 -0.28814 0.28814 l-8.3559 0 c-0.16949 0 -0.28831 -0.11864 -0.28831 -0.28814 l0 -13 c0 -0.15254 0.10186 -0.27119 0.27119 -0.27119 l8.3731 0 c0.16949 0 0.28814 0.11864 0.28814 0.27119 l0 1.3051 c0 0.16949 -0.11864 0.27119 -0.28814 0.27119 z M21.423237288135596 18.0847 c0.18644 0 0.28797 0.10186 0.28797 0.27136 l0 0.98305 c0 0.42373 -0.28814 0.66085 -0.69492 0.66085 l-8.8983 0 c-0.15254 0 -0.27119 -0.10153 -0.27119 -0.27102 l0 -0.33898 l0.067797 -0.10169 l6.7627 -10.949 l-6.4746 0 c-0.16949 0 -0.30508 -0.10169 -0.30508 -0.27119 l0 -1.3388 c0 -0.16966 0.11864 -0.28831 0.30508 -0.28831 l9.1864 0 c0.16966 0 0.28831 0.10169 0.28831 0.27119 l0 0.28797 l-0.033898 0.050847 l-6.7797 11.034 l6.5593 0 z M30.491484745762712 6.441000000000001 c0.38983 0 0.64424 0.25458 0.64424 0.61051 l0 12.678 c0 0.15238 -0.11864 0.27102 -0.25424 0.27102 l-0.69492 0 c-0.33898 0 -0.79661 -0.22017 -0.88119 -0.62695 c-0.59356 0.42373 -1.3902 0.74542 -2.3393 0.74542 c-2.3898 0 -3.9831 -1.932 -3.9831 -4.4066 c0 -2.5424 1.9492 -4.1695 3.9322 -4.1695 c1.0508 0 1.7964 0.3222 2.39 0.67797 l0 -4.322 c0 -0.52542 -0.10186 -0.79661 -0.15271 -1.1017 c-0.033898 -0.18661 0.033898 -0.3561 0.18644 -0.3561 l1.1525 0 z M24.796784745762714 15.712399999999999 c0 1.678 1.0847 2.6949 2.4746 2.6949 c0.83051 0 1.4915 -0.27119 2.0339 -0.57627 l0 -3.8814 c-0.62712 -0.40678 -1.322 -0.69492 -2.1017 -0.69492 c-1.0678 0 -2.4068 0.72881 -2.4068 2.4576 z M37.50834237288136 11.5256 c1.9831 0 3.8812 1.6273 3.8812 4.1697 c0 2.4746 -1.5424 4.4064 -3.9322 4.4064 c-0.91525 0 -1.6949 -0.30475 -2.3049 -0.72847 c-0.084746 0.40678 -0.54237 0.62695 -0.88136 0.62695 l-0.67797 0 c-0.15254 0 -0.27119 -0.11864 -0.27119 -0.27102 l0 -11.831 c0 -0.52542 -0.084746 -0.79661 -0.13559 -1.1017 c-0.033732 -0.18661 0.017115 -0.3561 0.18661 -0.3561 l1.1525 0 c0.38983 0 0.64407 0.25424 0.64407 0.61017 l0 5.1356 c0.57627 -0.35593 1.3219 -0.66102 2.3388 -0.66102 z M37.16914237288135 18.3903 c1.3729 0 2.4068 -1.0169 2.4068 -2.6949 c0 -1.7288 -1.2712 -2.4576 -2.339 -2.4576 c-0.76271 0 -1.4576 0.27119 -2.0678 0.66102 l0 3.9322 c0.54237 0.30508 1.1864 0.55932 2 0.55932 z"></path></g></svg>
